<svg width="373" height="66" viewBox="0 0 373 66" fill="none" xmlns="http://www.w3.org/2000/svg">
<path d="M14.254 5.89209C9.04313 5.89209 4.80371 10.1315 4.80371 15.3423C4.80371 21.8918 14.2632 33.0796 14.2632 33.0796C14.2632 33.0796 23.7042 21.5697 23.7042 15.3423C23.7042 10.1315 19.4649 5.89209 14.254 5.89209ZM17.1053 18.1094C16.3191 18.8954 15.2866 19.2885 14.254 19.2885C13.2215 19.2885 12.1887 18.8954 11.4028 18.1094C9.83051 16.5373 9.83051 13.9791 11.4028 12.4069C12.1641 11.6452 13.1768 11.2257 14.254 11.2257C15.3311 11.2257 16.3436 11.6454 17.1053 12.4069C18.6776 13.9791 18.6776 16.5373 17.1053 18.1094Z" fill="black"/>
<path d="M55.36 10.94C56.36 10.94 57.24 11.1667 58 11.62C58.7733 12.06 59.3733 12.7067 59.8 13.56C60.24 14.4 60.46 15.3933 60.46 16.54C60.46 17.6733 60.24 18.6667 59.8 19.52C59.3733 20.36 58.7733 21.0067 58 21.46C57.2267 21.9133 56.3467 22.14 55.36 22.14C54.24 22.14 53.2933 21.8533 52.52 21.28C51.7467 20.7067 51.2133 19.9467 50.92 19V22H49.52V7.2H50.92V14.08C51.2133 13.1333 51.7467 12.3733 52.52 11.8C53.2933 11.2267 54.24 10.94 55.36 10.94ZM54.98 12.18C54.2067 12.18 53.5067 12.36 52.88 12.72C52.2667 13.08 51.7867 13.5933 51.44 14.26C51.0933 14.9133 50.92 15.6733 50.92 16.54C50.92 17.4067 51.0933 18.1733 51.44 18.84C51.7867 19.4933 52.2667 20 52.88 20.36C53.5067 20.72 54.2067 20.9 54.98 20.9C56.22 20.9 57.2067 20.5133 57.94 19.74C58.6733 18.9533 59.04 17.8867 59.04 16.54C59.04 15.1933 58.6733 14.1333 57.94 13.36C57.2067 12.5733 56.22 12.18 54.98 12.18ZM72.397 11.08V22H70.997V19.3C70.717 20.2467 70.2104 20.9667 69.477 21.46C68.7437 21.9533 67.9037 22.2 66.957 22.2C65.677 22.2 64.637 21.8 63.837 21C63.0504 20.1867 62.657 19 62.657 17.44V11.08H64.057V17.32C64.057 18.52 64.357 19.44 64.957 20.08C65.557 20.7067 66.377 21.02 67.417 21.02C68.5104 21.02 69.377 20.6733 70.017 19.98C70.6704 19.2733 70.997 18.24 70.997 16.88V11.08H72.397ZM80.4175 20.76V22H79.1175C78.0642 22 77.2775 21.7533 76.7575 21.26C76.2375 20.7533 75.9775 19.9067 75.9775 18.72V12.3H74.3175V11.08H75.9775V8.32H77.3975V11.08H80.3975V12.3H77.3975V18.74C77.3975 19.5133 77.5375 20.0467 77.8175 20.34C78.0975 20.62 78.5908 20.76 79.2975 20.76H80.4175ZM92.5184 10.94C93.6251 10.94 94.5651 11.2267 95.3384 11.8C96.1251 12.3733 96.6651 13.1333 96.9584 14.08V11.08H98.3384V22H96.9584V19C96.6651 19.9467 96.1251 20.7067 95.3384 21.28C94.5651 21.8533 93.6251 22.14 92.5184 22.14C91.5318 22.14 90.6451 21.9133 89.8584 21.46C89.0851 21.0067 88.4784 20.36 88.0384 19.52C87.6118 18.6667 87.3984 17.6733 87.3984 16.54C87.3984 15.3933 87.6118 14.4 88.0384 13.56C88.4784 12.7067 89.0851 12.06 89.8584 11.62C90.6318 11.1667 91.5184 10.94 92.5184 10.94ZM92.8784 12.18C91.6518 12.18 90.6651 12.5733 89.9184 13.36C89.1851 14.1333 88.8184 15.1933 88.8184 16.54C88.8184 17.8867 89.1851 18.9533 89.9184 19.74C90.6651 20.5133 91.6518 20.9 92.8784 20.9C93.6518 20.9 94.3451 20.72 94.9584 20.36C95.5851 20 96.0718 19.4933 96.4184 18.84C96.7784 18.1733 96.9584 17.4067 96.9584 16.54C96.9584 15.6733 96.7784 14.9133 96.4184 14.26C96.0718 13.5933 95.5851 13.08 94.9584 12.72C94.3451 12.36 93.6518 12.18 92.8784 12.18ZM102.795 7.2V22H101.375V7.2H102.795ZM109.129 10.94C110.315 10.94 111.269 11.2533 111.989 11.88C112.709 12.5067 113.149 13.3533 113.309 14.42H111.969C111.889 13.7133 111.595 13.1333 111.089 12.68C110.595 12.2133 109.929 11.98 109.089 11.98C108.369 11.98 107.802 12.16 107.389 12.52C106.989 12.8667 106.789 13.3333 106.789 13.92C106.789 14.36 106.915 14.7133 107.169 14.98C107.435 15.2467 107.762 15.4533 108.149 15.6C108.535 15.7333 109.055 15.8733 109.709 16.02C110.509 16.2067 111.149 16.4 111.629 16.6C112.122 16.7867 112.542 17.0867 112.889 17.5C113.235 17.9133 113.409 18.4733 113.409 19.18C113.409 20.0467 113.082 20.76 112.429 21.32C111.789 21.8667 110.935 22.14 109.869 22.14C108.615 22.14 107.589 21.8333 106.789 21.22C105.989 20.5933 105.515 19.74 105.369 18.66H106.729C106.809 19.38 107.122 19.9667 107.669 20.42C108.215 20.8733 108.955 21.1 109.889 21.1C110.582 21.1 111.122 20.92 111.509 20.56C111.895 20.2 112.089 19.7333 112.089 19.16C112.089 18.6933 111.955 18.32 111.689 18.04C111.422 17.76 111.089 17.5533 110.689 17.42C110.302 17.2733 109.769 17.12 109.089 16.96C108.302 16.7733 107.669 16.5867 107.189 16.4C106.722 16.2133 106.322 15.9267 105.989 15.54C105.655 15.14 105.489 14.6 105.489 13.92C105.489 13.0267 105.815 12.3067 106.469 11.76C107.122 11.2133 108.009 10.94 109.129 10.94ZM120.905 10.94C121.945 10.94 122.872 11.1667 123.685 11.62C124.512 12.06 125.159 12.7067 125.625 13.56C126.092 14.4 126.325 15.3933 126.325 16.54C126.325 17.6867 126.092 18.68 125.625 19.52C125.159 20.36 124.512 21.0067 123.685 21.46C122.872 21.9133 121.945 22.14 120.905 22.14C119.865 22.14 118.932 21.9133 118.105 21.46C117.279 21.0067 116.625 20.36 116.145 19.52C115.679 18.6667 115.445 17.6733 115.445 16.54C115.445 15.3933 115.679 14.4 116.145 13.56C116.625 12.7067 117.279 12.06 118.105 11.62C118.932 11.1667 119.865 10.94 120.905 10.94ZM120.905 12.16C120.185 12.16 119.519 12.32 118.905 12.64C118.292 12.96 117.799 13.4533 117.425 14.12C117.052 14.7733 116.865 15.58 116.865 16.54C116.865 17.5 117.052 18.3067 117.425 18.96C117.799 19.6133 118.292 20.1 118.905 20.42C119.519 20.74 120.185 20.9 120.905 20.9C121.612 20.9 122.265 20.74 122.865 20.42C123.479 20.1 123.972 19.6133 124.345 18.96C124.719 18.3067 124.905 17.5 124.905 16.54C124.905 15.58 124.719 14.7733 124.345 14.12C123.972 13.4533 123.479 12.96 122.865 12.64C122.265 12.32 121.612 12.16 120.905 12.16ZM138.992 20.76V22H137.692C136.638 22 135.852 21.7533 135.332 21.26C134.812 20.7533 134.552 19.9067 134.552 18.72V12.3H132.892V11.08H134.552V8.32H135.972V11.08H138.972V12.3H135.972V18.74C135.972 19.5133 136.112 20.0467 136.392 20.34C136.672 20.62 137.165 20.76 137.872 20.76H138.992ZM146.757 10.88C148.024 10.88 149.051 11.2867 149.837 12.1C150.637 12.9 151.037 14.08 151.037 15.64V22H149.657V15.74C149.657 14.5533 149.357 13.6467 148.757 13.02C148.157 12.38 147.337 12.06 146.297 12.06C145.204 12.06 144.331 12.4133 143.677 13.12C143.037 13.8133 142.717 14.84 142.717 16.2V22H141.297V7.2H142.717V13.76C142.997 12.8267 143.504 12.1133 144.237 11.62C144.971 11.1267 145.811 10.88 146.757 10.88ZM158.753 20.98C159.739 20.98 160.566 20.7333 161.233 20.24C161.899 19.7467 162.299 19.08 162.433 18.24H163.913C163.713 19.4 163.159 20.34 162.253 21.06C161.346 21.78 160.199 22.14 158.813 22.14C157.773 22.14 156.846 21.92 156.033 21.48C155.233 21.0267 154.606 20.38 154.153 19.54C153.699 18.6867 153.473 17.6867 153.473 16.54C153.473 15.3933 153.699 14.4 154.153 13.56C154.606 12.7067 155.233 12.06 156.033 11.62C156.846 11.1667 157.773 10.94 158.813 10.94C159.879 10.94 160.799 11.1667 161.573 11.62C162.359 12.06 162.953 12.6533 163.353 13.4C163.766 14.1467 163.973 14.96 163.973 15.84C163.973 16.2133 163.946 16.5533 163.893 16.86H154.853C154.866 17.78 155.053 18.5533 155.413 19.18C155.786 19.7933 156.266 20.2467 156.853 20.54C157.439 20.8333 158.073 20.98 158.753 20.98ZM158.813 12.08C158.106 12.08 157.459 12.2267 156.873 12.52C156.286 12.8133 155.806 13.2667 155.433 13.88C155.073 14.48 154.879 15.2333 154.853 16.14H162.573C162.626 15.2467 162.479 14.4933 162.133 13.88C161.786 13.2667 161.319 12.8133 160.733 12.52C160.146 12.2267 159.506 12.08 158.813 12.08ZM173.108 7.2V22H171.688V7.2H173.108ZM180.901 20.98C181.888 20.98 182.714 20.7333 183.381 20.24C184.048 19.7467 184.448 19.08 184.581 18.24H186.061C185.861 19.4 185.308 20.34 184.401 21.06C183.494 21.78 182.348 22.14 180.961 22.14C179.921 22.14 178.994 21.92 178.181 21.48C177.381 21.0267 176.754 20.38 176.301 19.54C175.848 18.6867 175.621 17.6867 175.621 16.54C175.621 15.3933 175.848 14.4 176.301 13.56C176.754 12.7067 177.381 12.06 178.181 11.62C178.994 11.1667 179.921 10.94 180.961 10.94C182.028 10.94 182.948 11.1667 183.721 11.62C184.508 12.06 185.101 12.6533 185.501 13.4C185.914 14.1467 186.121 14.96 186.121 15.84C186.121 16.2133 186.094 16.5533 186.041 16.86H177.001C177.014 17.78 177.201 18.5533 177.561 19.18C177.934 19.7933 178.414 20.2467 179.001 20.54C179.588 20.8333 180.221 20.98 180.901 20.98ZM180.961 12.08C180.254 12.08 179.608 12.2267 179.021 12.52C178.434 12.8133 177.954 13.2667 177.581 13.88C177.221 14.48 177.028 15.2333 177.001 16.14H184.721C184.774 15.2467 184.628 14.4933 184.281 13.88C183.934 13.2667 183.468 12.8133 182.881 12.52C182.294 12.2267 181.654 12.08 180.961 12.08ZM193.241 10.94C194.348 10.94 195.288 11.2267 196.061 11.8C196.848 12.3733 197.388 13.1333 197.681 14.08V11.08H199.061V22H197.681V19C197.388 19.9467 196.848 20.7067 196.061 21.28C195.288 21.8533 194.348 22.14 193.241 22.14C192.254 22.14 191.368 21.9133 190.581 21.46C189.808 21.0067 189.201 20.36 188.761 19.52C188.334 18.6667 188.121 17.6733 188.121 16.54C188.121 15.3933 188.334 14.4 188.761 13.56C189.201 12.7067 189.808 12.06 190.581 11.62C191.354 11.1667 192.241 10.94 193.241 10.94ZM193.601 12.18C192.374 12.18 191.388 12.5733 190.641 13.36C189.908 14.1333 189.541 15.1933 189.541 16.54C189.541 17.8867 189.908 18.9533 190.641 19.74C191.388 20.5133 192.374 20.9 193.601 20.9C194.374 20.9 195.068 20.72 195.681 20.36C196.308 20 196.794 19.4933 197.141 18.84C197.501 18.1733 197.681 17.4067 197.681 16.54C197.681 15.6733 197.501 14.9133 197.141 14.26C196.794 13.5933 196.308 13.08 195.681 12.72C195.068 12.36 194.374 12.18 193.601 12.18ZM207.938 10.94C208.938 10.94 209.818 11.1667 210.578 11.62C211.351 12.06 211.951 12.7067 212.378 13.56C212.818 14.4 213.038 15.3933 213.038 16.54C213.038 17.6733 212.818 18.6667 212.378 19.52C211.951 20.36 211.351 21.0067 210.578 21.46C209.805 21.9133 208.925 22.14 207.938 22.14C206.818 22.14 205.871 21.8533 205.098 21.28C204.325 20.7067 203.791 19.9467 203.498 19V27.16H202.098V11.08H203.498V14.08C203.791 13.1333 204.325 12.3733 205.098 11.8C205.871 11.2267 206.818 10.94 207.938 10.94ZM207.558 12.18C206.785 12.18 206.085 12.36 205.458 12.72C204.845 13.08 204.365 13.5933 204.018 14.26C203.671 14.9133 203.498 15.6733 203.498 16.54C203.498 17.4067 203.671 18.1733 204.018 18.84C204.365 19.4933 204.845 20 205.458 20.36C206.085 20.72 206.785 20.9 207.558 20.9C208.798 20.9 209.785 20.5133 210.518 19.74C211.251 18.9533 211.618 17.8867 211.618 16.54C211.618 15.1933 211.251 14.1333 210.518 13.36C209.785 12.5733 208.798 12.18 207.558 12.18ZM220.43 7.84C220.43 7.54667 220.524 7.31333 220.71 7.14C220.91 6.96667 221.164 6.88 221.47 6.88C221.777 6.88 222.024 6.96667 222.21 7.14C222.397 7.31333 222.49 7.54667 222.49 7.84C222.49 8.12 222.397 8.34667 222.21 8.52C222.024 8.69333 221.777 8.78 221.47 8.78C221.164 8.78 220.91 8.69333 220.71 8.52C220.524 8.34667 220.43 8.12 220.43 7.84ZM222.17 11.08V22H220.75V11.08H222.17ZM230.664 10.88C231.93 10.88 232.957 11.2867 233.744 12.1C234.544 12.9 234.944 14.08 234.944 15.64V22H233.564V15.74C233.564 14.5533 233.264 13.6467 232.664 13.02C232.064 12.38 231.244 12.06 230.204 12.06C229.11 12.06 228.237 12.4133 227.584 13.12C226.944 13.8133 226.624 14.84 226.624 16.2V22H225.204V11.08H226.624V13.76C226.904 12.8267 227.41 12.1133 228.144 11.62C228.877 11.1267 229.717 10.88 230.664 10.88ZM242.859 20.76V22H241.559C240.506 22 239.719 21.7533 239.199 21.26C238.679 20.7533 238.419 19.9067 238.419 18.72V12.3H236.759V11.08H238.419V8.32H239.839V11.08H242.839V12.3H239.839V18.74C239.839 19.5133 239.979 20.0467 240.259 20.34C240.539 20.62 241.032 20.76 241.739 20.76H242.859ZM250.105 10.94C251.145 10.94 252.071 11.1667 252.885 11.62C253.711 12.06 254.358 12.7067 254.825 13.56C255.291 14.4 255.525 15.3933 255.525 16.54C255.525 17.6867 255.291 18.68 254.825 19.52C254.358 20.36 253.711 21.0067 252.885 21.46C252.071 21.9133 251.145 22.14 250.105 22.14C249.065 22.14 248.131 21.9133 247.305 21.46C246.478 21.0067 245.825 20.36 245.345 19.52C244.878 18.6667 244.645 17.6733 244.645 16.54C244.645 15.3933 244.878 14.4 245.345 13.56C245.825 12.7067 246.478 12.06 247.305 11.62C248.131 11.1667 249.065 10.94 250.105 10.94ZM250.105 12.16C249.385 12.16 248.718 12.32 248.105 12.64C247.491 12.96 246.998 13.4533 246.625 14.12C246.251 14.7733 246.065 15.58 246.065 16.54C246.065 17.5 246.251 18.3067 246.625 18.96C246.998 19.6133 247.491 20.1 248.105 20.42C248.718 20.74 249.385 20.9 250.105 20.9C250.811 20.9 251.465 20.74 252.065 20.42C252.678 20.1 253.171 19.6133 253.545 18.96C253.918 18.3067 254.105 17.5 254.105 16.54C254.105 15.58 253.918 14.7733 253.545 14.12C253.171 13.4533 252.678 12.96 252.065 12.64C251.465 12.32 250.811 12.16 250.105 12.16ZM267.991 20.98C268.978 20.98 269.804 20.7333 270.471 20.24C271.138 19.7467 271.538 19.08 271.671 18.24H273.151C272.951 19.4 272.398 20.34 271.491 21.06C270.584 21.78 269.438 22.14 268.051 22.14C267.011 22.14 266.084 21.92 265.271 21.48C264.471 21.0267 263.844 20.38 263.391 19.54C262.938 18.6867 262.711 17.6867 262.711 16.54C262.711 15.3933 262.938 14.4 263.391 13.56C263.844 12.7067 264.471 12.06 265.271 11.62C266.084 11.1667 267.011 10.94 268.051 10.94C269.118 10.94 270.038 11.1667 270.811 11.62C271.598 12.06 272.191 12.6533 272.591 13.4C273.004 14.1467 273.211 14.96 273.211 15.84C273.211 16.2133 273.184 16.5533 273.131 16.86H264.091C264.104 17.78 264.291 18.5533 264.651 19.18C265.024 19.7933 265.504 20.2467 266.091 20.54C266.678 20.8333 267.311 20.98 267.991 20.98ZM268.051 12.08C267.344 12.08 266.698 12.2267 266.111 12.52C265.524 12.8133 265.044 13.2667 264.671 13.88C264.311 14.48 264.118 15.2333 264.091 16.14H271.811C271.864 15.2467 271.718 14.4933 271.371 13.88C271.024 13.2667 270.558 12.8133 269.971 12.52C269.384 12.2267 268.744 12.08 268.051 12.08ZM277.151 7.2V22H275.731V7.2H277.151ZM284.944 20.98C285.931 20.98 286.757 20.7333 287.424 20.24C288.091 19.7467 288.491 19.08 288.624 18.24H290.104C289.904 19.4 289.351 20.34 288.444 21.06C287.537 21.78 286.391 22.14 285.004 22.14C283.964 22.14 283.037 21.92 282.224 21.48C281.424 21.0267 280.797 20.38 280.344 19.54C279.891 18.6867 279.664 17.6867 279.664 16.54C279.664 15.3933 279.891 14.4 280.344 13.56C280.797 12.7067 281.424 12.06 282.224 11.62C283.037 11.1667 283.964 10.94 285.004 10.94C286.071 10.94 286.991 11.1667 287.764 11.62C288.551 12.06 289.144 12.6533 289.544 13.4C289.957 14.1467 290.164 14.96 290.164 15.84C290.164 16.2133 290.137 16.5533 290.084 16.86H281.044C281.057 17.78 281.244 18.5533 281.604 19.18C281.977 19.7933 282.457 20.2467 283.044 20.54C283.631 20.8333 284.264 20.98 284.944 20.98ZM285.004 12.08C284.297 12.08 283.651 12.2267 283.064 12.52C282.477 12.8133 281.997 13.2667 281.624 13.88C281.264 14.48 281.071 15.2333 281.044 16.14H288.764C288.817 15.2467 288.671 14.4933 288.324 13.88C287.977 13.2667 287.511 12.8133 286.924 12.52C286.337 12.2267 285.697 12.08 285.004 12.08ZM297.504 10.94C298.891 10.94 300.037 11.3067 300.944 12.04C301.864 12.7733 302.424 13.7467 302.624 14.96H301.164C301.017 14.0933 300.611 13.4133 299.944 12.92C299.277 12.4133 298.457 12.16 297.484 12.16C296.777 12.16 296.124 12.32 295.524 12.64C294.937 12.96 294.464 13.4533 294.104 14.12C293.757 14.7733 293.584 15.58 293.584 16.54C293.584 17.5 293.757 18.3133 294.104 18.98C294.464 19.6333 294.937 20.12 295.524 20.44C296.124 20.76 296.777 20.92 297.484 20.92C298.457 20.92 299.277 20.6733 299.944 20.18C300.611 19.6733 301.017 18.9867 301.164 18.12H302.624C302.424 19.3333 301.864 20.3067 300.944 21.04C300.037 21.7733 298.891 22.14 297.504 22.14C296.464 22.14 295.537 21.92 294.724 21.48C293.924 21.0267 293.297 20.38 292.844 19.54C292.391 18.6867 292.164 17.6867 292.164 16.54C292.164 15.3933 292.391 14.4 292.844 13.56C293.297 12.7067 293.924 12.06 294.724 11.62C295.537 11.1667 296.464 10.94 297.504 10.94ZM310.105 20.76V22H308.805C307.752 22 306.965 21.7533 306.445 21.26C305.925 20.7533 305.665 19.9067 305.665 18.72V12.3H304.005V11.08H305.665V8.32H307.085V11.08H310.085V12.3H307.085V18.74C307.085 19.5133 307.225 20.0467 307.505 20.34C307.785 20.62 308.278 20.76 308.985 20.76H310.105ZM313.831 13.34C314.151 12.5533 314.664 11.9467 315.371 11.52C316.077 11.0933 316.937 10.88 317.951 10.88V12.4H317.491C316.437 12.4 315.564 12.6867 314.871 13.26C314.177 13.82 313.831 14.74 313.831 16.02V22H312.411V11.08H313.831V13.34ZM324.753 10.94C325.793 10.94 326.72 11.1667 327.533 11.62C328.36 12.06 329.006 12.7067 329.473 13.56C329.94 14.4 330.173 15.3933 330.173 16.54C330.173 17.6867 329.94 18.68 329.473 19.52C329.006 20.36 328.36 21.0067 327.533 21.46C326.72 21.9133 325.793 22.14 324.753 22.14C323.713 22.14 322.78 21.9133 321.953 21.46C321.126 21.0067 320.473 20.36 319.993 19.52C319.526 18.6667 319.293 17.6733 319.293 16.54C319.293 15.3933 319.526 14.4 319.993 13.56C320.473 12.7067 321.126 12.06 321.953 11.62C322.78 11.1667 323.713 10.94 324.753 10.94ZM324.753 12.16C324.033 12.16 323.366 12.32 322.753 12.64C322.14 12.96 321.646 13.4533 321.273 14.12C320.9 14.7733 320.713 15.58 320.713 16.54C320.713 17.5 320.9 18.3067 321.273 18.96C321.646 19.6133 322.14 20.1 322.753 20.42C323.366 20.74 324.033 20.9 324.753 20.9C325.46 20.9 326.113 20.74 326.713 20.42C327.326 20.1 327.82 19.6133 328.193 18.96C328.566 18.3067 328.753 17.5 328.753 16.54C328.753 15.58 328.566 14.7733 328.193 14.12C327.82 13.4533 327.326 12.96 326.713 12.64C326.113 12.32 325.46 12.16 324.753 12.16ZM338.144 10.88C339.411 10.88 340.437 11.2867 341.224 12.1C342.024 12.9 342.424 14.08 342.424 15.64V22H341.044V15.74C341.044 14.5533 340.744 13.6467 340.144 13.02C339.544 12.38 338.724 12.06 337.684 12.06C336.591 12.06 335.717 12.4133 335.064 13.12C334.424 13.8133 334.104 14.84 334.104 16.2V22H332.684V11.08H334.104V13.76C334.384 12.8267 334.891 12.1133 335.624 11.62C336.357 11.1267 337.197 10.88 338.144 10.88ZM345.059 7.84C345.059 7.54667 345.153 7.31333 345.339 7.14C345.539 6.96667 345.793 6.88 346.099 6.88C346.406 6.88 346.653 6.96667 346.839 7.14C347.026 7.31333 347.119 7.54667 347.119 7.84C347.119 8.12 347.026 8.34667 346.839 8.52C346.653 8.69333 346.406 8.78 346.099 8.78C345.793 8.78 345.539 8.69333 345.339 8.52C345.153 8.34667 345.059 8.12 345.059 7.84ZM346.799 11.08V22H345.379V11.08H346.799ZM354.653 10.94C356.039 10.94 357.186 11.3067 358.093 12.04C359.013 12.7733 359.573 13.7467 359.773 14.96H358.312C358.166 14.0933 357.759 13.4133 357.093 12.92C356.426 12.4133 355.606 12.16 354.633 12.16C353.926 12.16 353.273 12.32 352.673 12.64C352.086 12.96 351.613 13.4533 351.252 14.12C350.906 14.7733 350.733 15.58 350.733 16.54C350.733 17.5 350.906 18.3133 351.252 18.98C351.613 19.6333 352.086 20.12 352.673 20.44C353.273 20.76 353.926 20.92 354.633 20.92C355.606 20.92 356.426 20.6733 357.093 20.18C357.759 19.6733 358.166 18.9867 358.312 18.12H359.773C359.573 19.3333 359.013 20.3067 358.093 21.04C357.186 21.7733 356.039 22.14 354.653 22.14C353.613 22.14 352.686 21.92 351.873 21.48C351.073 21.0267 350.446 20.38 349.993 19.54C349.539 18.6867 349.313 17.6867 349.313 16.54C349.313 15.3933 349.539 14.4 349.993 13.56C350.446 12.7067 351.073 12.06 351.873 11.62C352.686 11.1667 353.613 10.94 354.653 10.94ZM54.48 50.76V52H53.18C52.1267 52 51.34 51.7533 50.82 51.26C50.3 50.7533 50.04 49.9067 50.04 48.72V42.3H48.38V41.08H50.04V38.32H51.46V41.08H54.46V42.3H51.46V48.74C51.46 49.5133 51.6 50.0467 51.88 50.34C52.16 50.62 52.6533 50.76 53.36 50.76H54.48ZM57.0856 41.08L60.8856 50.18L64.3856 41.08H65.9456L59.5256 57.16H57.9256L60.1256 51.88L55.5256 41.08H57.0856ZM73.5631 40.94C74.5631 40.94 75.4431 41.1667 76.2031 41.62C76.9765 42.06 77.5765 42.7067 78.0031 43.56C78.4431 44.4 78.6631 45.3933 78.6631 46.54C78.6631 47.6733 78.4431 48.6667 78.0031 49.52C77.5765 50.36 76.9765 51.0067 76.2031 51.46C75.4298 51.9133 74.5498 52.14 73.5631 52.14C72.4431 52.14 71.4965 51.8533 70.7231 51.28C69.9498 50.7067 69.4165 49.9467 69.1231 49V57.16H67.7231V41.08H69.1231V44.08C69.4165 43.1333 69.9498 42.3733 70.7231 41.8C71.4965 41.2267 72.4431 40.94 73.5631 40.94ZM73.1831 42.18C72.4098 42.18 71.7098 42.36 71.0831 42.72C70.4698 43.08 69.9898 43.5933 69.6431 44.26C69.2965 44.9133 69.1231 45.6733 69.1231 46.54C69.1231 47.4067 69.2965 48.1733 69.6431 48.84C69.9898 49.4933 70.4698 50 71.0831 50.36C71.7098 50.72 72.4098 50.9 73.1831 50.9C74.4231 50.9 75.4098 50.5133 76.1431 49.74C76.8765 48.9533 77.2431 47.8867 77.2431 46.54C77.2431 45.1933 76.8765 44.1333 76.1431 43.36C75.4098 42.5733 74.4231 42.18 73.1831 42.18ZM85.9402 50.98C86.9268 50.98 87.7535 50.7333 88.4202 50.24C89.0868 49.7467 89.4868 49.08 89.6202 48.24H91.1002C90.9002 49.4 90.3468 50.34 89.4402 51.06C88.5335 51.78 87.3868 52.14 86.0002 52.14C84.9602 52.14 84.0335 51.92 83.2202 51.48C82.4202 51.0267 81.7935 50.38 81.3402 49.54C80.8868 48.6867 80.6602 47.6867 80.6602 46.54C80.6602 45.3933 80.8868 44.4 81.3402 43.56C81.7935 42.7067 82.4202 42.06 83.2202 41.62C84.0335 41.1667 84.9602 40.94 86.0002 40.94C87.0668 40.94 87.9868 41.1667 88.7602 41.62C89.5468 42.06 90.1402 42.6533 90.5402 43.4C90.9535 44.1467 91.1602 44.96 91.1602 45.84C91.1602 46.2133 91.1335 46.5533 91.0802 46.86H82.0402C82.0535 47.78 82.2402 48.5533 82.6002 49.18C82.9735 49.7933 83.4535 50.2467 84.0402 50.54C84.6268 50.8333 85.2602 50.98 85.9402 50.98ZM86.0002 42.08C85.2935 42.08 84.6468 42.2267 84.0602 42.52C83.4735 42.8133 82.9935 43.2667 82.6202 43.88C82.2602 44.48 82.0668 45.2333 82.0402 46.14H89.7602C89.8135 45.2467 89.6668 44.4933 89.3202 43.88C88.9735 43.2667 88.5068 42.8133 87.9202 42.52C87.3335 42.2267 86.6935 42.08 86.0002 42.08ZM96.9802 40.94C98.1668 40.94 99.1202 41.2533 99.8402 41.88C100.56 42.5067 101 43.3533 101.16 44.42H99.8202C99.7402 43.7133 99.4468 43.1333 98.9402 42.68C98.4468 42.2133 97.7802 41.98 96.9402 41.98C96.2202 41.98 95.6535 42.16 95.2402 42.52C94.8402 42.8667 94.6402 43.3333 94.6402 43.92C94.6402 44.36 94.7668 44.7133 95.0202 44.98C95.2868 45.2467 95.6135 45.4533 96.0002 45.6C96.3868 45.7333 96.9068 45.8733 97.5602 46.02C98.3602 46.2067 99.0002 46.4 99.4802 46.6C99.9735 46.7867 100.393 47.0867 100.74 47.5C101.087 47.9133 101.26 48.4733 101.26 49.18C101.26 50.0467 100.933 50.76 100.28 51.32C99.6402 51.8667 98.7868 52.14 97.7202 52.14C96.4668 52.14 95.4402 51.8333 94.6402 51.22C93.8402 50.5933 93.3668 49.74 93.2202 48.66H94.5802C94.6602 49.38 94.9735 49.9667 95.5202 50.42C96.0668 50.8733 96.8068 51.1 97.7402 51.1C98.4335 51.1 98.9735 50.92 99.3602 50.56C99.7468 50.2 99.9402 49.7333 99.9402 49.16C99.9402 48.6933 99.8068 48.32 99.5402 48.04C99.2735 47.76 98.9402 47.5533 98.5402 47.42C98.1535 47.2733 97.6202 47.12 96.9402 46.96C96.1535 46.7733 95.5202 46.5867 95.0402 46.4C94.5735 46.2133 94.1735 45.9267 93.8402 45.54C93.5068 45.14 93.3402 44.6 93.3402 43.92C93.3402 43.0267 93.6668 42.3067 94.3202 41.76C94.9735 41.2133 95.8602 40.94 96.9802 40.94ZM108.577 50.98C109.564 50.98 110.39 50.7333 111.057 50.24C111.724 49.7467 112.124 49.08 112.257 48.24H113.737C113.537 49.4 112.984 50.34 112.077 51.06C111.17 51.78 110.024 52.14 108.637 52.14C107.597 52.14 106.67 51.92 105.857 51.48C105.057 51.0267 104.43 50.38 103.977 49.54C103.524 48.6867 103.297 47.6867 103.297 46.54C103.297 45.3933 103.524 44.4 103.977 43.56C104.43 42.7067 105.057 42.06 105.857 41.62C106.67 41.1667 107.597 40.94 108.637 40.94C109.704 40.94 110.624 41.1667 111.397 41.62C112.184 42.06 112.777 42.6533 113.177 43.4C113.59 44.1467 113.797 44.96 113.797 45.84C113.797 46.2133 113.77 46.5533 113.717 46.86H104.677C104.69 47.78 104.877 48.5533 105.237 49.18C105.61 49.7933 106.09 50.2467 106.677 50.54C107.264 50.8333 107.897 50.98 108.577 50.98ZM108.637 42.08C107.93 42.08 107.284 42.2267 106.697 42.52C106.11 42.8133 105.63 43.2667 105.257 43.88C104.897 44.48 104.704 45.2333 104.677 46.14H112.397C112.45 45.2467 112.304 44.4933 111.957 43.88C111.61 43.2667 111.144 42.8133 110.557 42.52C109.97 42.2267 109.33 42.08 108.637 42.08ZM121.277 50.76V52H119.977C118.924 52 118.137 51.7533 117.617 51.26C117.097 50.7533 116.837 49.9067 116.837 48.72V42.3H115.177V41.08H116.837V38.32H118.257V41.08H121.257V42.3H118.257V48.74C118.257 49.5133 118.397 50.0467 118.677 50.34C118.957 50.62 119.45 50.76 120.157 50.76H121.277ZM128.543 50.76V52H127.243C126.189 52 125.403 51.7533 124.883 51.26C124.363 50.7533 124.103 49.9067 124.103 48.72V42.3H122.443V41.08H124.103V38.32H125.523V41.08H128.523V42.3H125.523V48.74C125.523 49.5133 125.663 50.0467 125.943 50.34C126.223 50.62 126.716 50.76 127.423 50.76H128.543ZM130.528 37.84C130.528 37.5467 130.621 37.3133 130.808 37.14C131.008 36.9667 131.261 36.88 131.568 36.88C131.875 36.88 132.121 36.9667 132.308 37.14C132.495 37.3133 132.588 37.5467 132.588 37.84C132.588 38.12 132.495 38.3467 132.308 38.52C132.121 38.6933 131.875 38.78 131.568 38.78C131.261 38.78 131.008 38.6933 130.808 38.52C130.621 38.3467 130.528 38.12 130.528 37.84ZM132.268 41.08V52H130.848V41.08H132.268ZM140.761 40.88C142.028 40.88 143.055 41.2867 143.841 42.1C144.641 42.9 145.041 44.08 145.041 45.64V52H143.661V45.74C143.661 44.5533 143.361 43.6467 142.761 43.02C142.161 42.38 141.341 42.06 140.301 42.06C139.208 42.06 138.335 42.4133 137.681 43.12C137.041 43.8133 136.721 44.84 136.721 46.2V52H135.301V41.08H136.721V43.76C137.001 42.8267 137.508 42.1133 138.241 41.62C138.975 41.1267 139.815 40.88 140.761 40.88ZM152.597 40.94C153.703 40.94 154.643 41.2267 155.417 41.8C156.203 42.3733 156.743 43.1333 157.037 44.08V41.08H158.417V52.26C158.417 53.2733 158.203 54.16 157.777 54.92C157.35 55.6933 156.757 56.2867 155.997 56.7C155.237 57.1267 154.37 57.34 153.397 57.34C151.97 57.34 150.797 56.9933 149.877 56.3C148.97 55.62 148.377 54.6933 148.097 53.52H149.497C149.737 54.32 150.177 54.9533 150.817 55.42C151.47 55.8867 152.303 56.12 153.317 56.12C154.01 56.12 154.637 55.9667 155.197 55.66C155.77 55.3667 156.217 54.9267 156.537 54.34C156.87 53.7533 157.037 53.06 157.037 52.26V49C156.743 49.9467 156.203 50.7067 155.417 51.28C154.643 51.8533 153.703 52.14 152.597 52.14C151.61 52.14 150.723 51.9133 149.937 51.46C149.163 51.0067 148.557 50.36 148.117 49.52C147.69 48.6667 147.477 47.6733 147.477 46.54C147.477 45.3933 147.69 44.4 148.117 43.56C148.557 42.7067 149.163 42.06 149.937 41.62C150.71 41.1667 151.597 40.94 152.597 40.94ZM152.957 42.18C151.73 42.18 150.743 42.5733 149.997 43.36C149.263 44.1333 148.897 45.1933 148.897 46.54C148.897 47.8867 149.263 48.9533 149.997 49.74C150.743 50.5133 151.73 50.9 152.957 50.9C153.73 50.9 154.423 50.72 155.037 50.36C155.663 50 156.15 49.4933 156.497 48.84C156.857 48.1733 157.037 47.4067 157.037 46.54C157.037 45.6733 156.857 44.9133 156.497 44.26C156.15 43.5933 155.663 43.08 155.037 42.72C154.423 42.36 153.73 42.18 152.957 42.18Z" fill="#333333"/>
</svg>
