<svg width="221" height="30" viewBox="0 0 221 30" fill="none" xmlns="http://www.w3.org/2000/svg">
<path d="M66.66 16.2H62.2V20.7H60.9V16.2H56.46V15H60.9V10.5H62.2V15H66.66V16.2ZM71.2655 19.18C71.4121 20.0467 71.7455 20.7133 72.2655 21.18C72.7855 21.6467 73.4988 21.88 74.4055 21.88C75.6588 21.88 76.5855 21.3933 77.1855 20.42C77.7988 19.4333 78.0788 17.8067 78.0255 15.54C77.7721 16.2733 77.2855 16.8533 76.5655 17.28C75.8588 17.6933 75.0455 17.9 74.1255 17.9C72.7255 17.9 71.5988 17.48 70.7455 16.64C69.9055 15.8 69.4855 14.6333 69.4855 13.14C69.4855 12.2467 69.6588 11.44 70.0055 10.72C70.3521 10 70.8788 9.43333 71.5855 9.02C72.2921 8.60667 73.1588 8.4 74.1855 8.4C76.0788 8.4 77.3988 9.02 78.1455 10.26C78.8921 11.4867 79.2655 13.2533 79.2655 15.56C79.2655 18.0533 78.8921 19.9267 78.1455 21.18C77.4121 22.4333 76.1455 23.06 74.3455 23.06C73.0255 23.06 71.9988 22.7067 71.2655 22C70.5321 21.28 70.0988 20.34 69.9655 19.18H71.2655ZM74.3455 16.7C74.9721 16.7 75.5455 16.5733 76.0655 16.32C76.5988 16.0533 77.0255 15.6667 77.3455 15.16C77.6655 14.6533 77.8255 14.0467 77.8255 13.34C77.8255 12.2467 77.5121 11.3467 76.8855 10.64C76.2721 9.93333 75.3855 9.58 74.2255 9.58C73.1988 9.58 72.3721 9.9 71.7455 10.54C71.1321 11.18 70.8255 12.0333 70.8255 13.1C70.8255 14.22 71.1321 15.1 71.7455 15.74C72.3588 16.38 73.2255 16.7 74.3455 16.7ZM81.2855 19.6V18.54L88.5655 8.74H90.2255V18.38H92.3655V19.6H90.2255V23H88.8455V19.6H81.2855ZM88.9055 10.28L82.9055 18.38H88.9055V10.28ZM99.6594 15.7C99.6594 13.4067 100.013 11.6267 100.719 10.36C101.426 9.09333 102.693 8.46 104.519 8.46C106.346 8.46 107.613 9.09333 108.319 10.36C109.026 11.6267 109.379 13.4067 109.379 15.7C109.379 18.0333 109.026 19.84 108.319 21.12C107.613 22.4 106.346 23.04 104.519 23.04C102.679 23.04 101.406 22.4 100.699 21.12C100.006 19.84 99.6594 18.0333 99.6594 15.7ZM107.999 15.7C107.999 14.46 107.913 13.4133 107.739 12.56C107.566 11.7067 107.226 11.02 106.719 10.5C106.213 9.98 105.479 9.72 104.519 9.72C103.559 9.72 102.826 9.98 102.319 10.5C101.813 11.02 101.473 11.7067 101.299 12.56C101.126 13.4133 101.039 14.46 101.039 15.7C101.039 16.98 101.126 18.0533 101.299 18.92C101.473 19.7733 101.813 20.46 102.319 20.98C102.826 21.5 103.559 21.76 104.519 21.76C105.479 21.76 106.213 21.5 106.719 20.98C107.226 20.46 107.566 19.7733 107.739 18.92C107.913 18.0533 107.999 16.98 107.999 15.7ZM111.984 15.7C111.984 13.4067 112.337 11.6267 113.044 10.36C113.75 9.09333 115.017 8.46 116.844 8.46C118.67 8.46 119.937 9.09333 120.644 10.36C121.35 11.6267 121.704 13.4067 121.704 15.7C121.704 18.0333 121.35 19.84 120.644 21.12C119.937 22.4 118.67 23.04 116.844 23.04C115.004 23.04 113.73 22.4 113.024 21.12C112.33 19.84 111.984 18.0333 111.984 15.7ZM120.324 15.7C120.324 14.46 120.237 13.4133 120.064 12.56C119.89 11.7067 119.55 11.02 119.044 10.5C118.537 9.98 117.804 9.72 116.844 9.72C115.884 9.72 115.15 9.98 114.644 10.5C114.137 11.02 113.797 11.7067 113.624 12.56C113.45 13.4133 113.364 14.46 113.364 15.7C113.364 16.98 113.45 18.0533 113.624 18.92C113.797 19.7733 114.137 20.46 114.644 20.98C115.15 21.5 115.884 21.76 116.844 21.76C117.804 21.76 118.537 21.5 119.044 20.98C119.55 20.46 119.89 19.7733 120.064 18.92C120.237 18.0533 120.324 16.98 120.324 15.7ZM124.308 15.7C124.308 13.4067 124.661 11.6267 125.368 10.36C126.074 9.09333 127.341 8.46 129.168 8.46C130.994 8.46 132.261 9.09333 132.968 10.36C133.674 11.6267 134.028 13.4067 134.028 15.7C134.028 18.0333 133.674 19.84 132.968 21.12C132.261 22.4 130.994 23.04 129.168 23.04C127.328 23.04 126.054 22.4 125.348 21.12C124.654 19.84 124.308 18.0333 124.308 15.7ZM132.648 15.7C132.648 14.46 132.561 13.4133 132.388 12.56C132.214 11.7067 131.874 11.02 131.368 10.5C130.861 9.98 130.128 9.72 129.168 9.72C128.208 9.72 127.474 9.98 126.968 10.5C126.461 11.02 126.121 11.7067 125.948 12.56C125.774 13.4133 125.688 14.46 125.688 15.7C125.688 16.98 125.774 18.0533 125.948 18.92C126.121 19.7733 126.461 20.46 126.968 20.98C127.474 21.5 128.208 21.76 129.168 21.76C130.128 21.76 130.861 21.5 131.368 20.98C131.874 20.46 132.214 19.7733 132.388 18.92C132.561 18.0533 132.648 16.98 132.648 15.7ZM136.632 15.7C136.632 13.4067 136.985 11.6267 137.692 10.36C138.399 9.09333 139.665 8.46 141.492 8.46C143.319 8.46 144.585 9.09333 145.292 10.36C145.999 11.6267 146.352 13.4067 146.352 15.7C146.352 18.0333 145.999 19.84 145.292 21.12C144.585 22.4 143.319 23.04 141.492 23.04C139.652 23.04 138.379 22.4 137.672 21.12C136.979 19.84 136.632 18.0333 136.632 15.7ZM144.972 15.7C144.972 14.46 144.885 13.4133 144.712 12.56C144.539 11.7067 144.199 11.02 143.692 10.5C143.185 9.98 142.452 9.72 141.492 9.72C140.532 9.72 139.799 9.98 139.292 10.5C138.785 11.02 138.445 11.7067 138.272 12.56C138.099 13.4133 138.012 14.46 138.012 15.7C138.012 16.98 138.099 18.0533 138.272 18.92C138.445 19.7733 138.785 20.46 139.292 20.98C139.799 21.5 140.532 21.76 141.492 21.76C142.452 21.76 143.185 21.5 143.692 20.98C144.199 20.46 144.539 19.7733 144.712 18.92C144.885 18.0533 144.972 16.98 144.972 15.7ZM154.445 15.7C154.445 13.4067 154.798 11.6267 155.505 10.36C156.211 9.09333 157.478 8.46 159.305 8.46C161.131 8.46 162.398 9.09333 163.105 10.36C163.811 11.6267 164.165 13.4067 164.165 15.7C164.165 18.0333 163.811 19.84 163.105 21.12C162.398 22.4 161.131 23.04 159.305 23.04C157.465 23.04 156.191 22.4 155.485 21.12C154.791 19.84 154.445 18.0333 154.445 15.7ZM162.785 15.7C162.785 14.46 162.698 13.4133 162.525 12.56C162.351 11.7067 162.011 11.02 161.505 10.5C160.998 9.98 160.265 9.72 159.305 9.72C158.345 9.72 157.611 9.98 157.105 10.5C156.598 11.02 156.258 11.7067 156.085 12.56C155.911 13.4133 155.825 14.46 155.825 15.7C155.825 16.98 155.911 18.0533 156.085 18.92C156.258 19.7733 156.598 20.46 157.105 20.98C157.611 21.5 158.345 21.76 159.305 21.76C160.265 21.76 160.998 21.5 161.505 20.98C162.011 20.46 162.351 19.7733 162.525 18.92C162.698 18.0533 162.785 16.98 162.785 15.7ZM166.769 15.7C166.769 13.4067 167.122 11.6267 167.829 10.36C168.535 9.09333 169.802 8.46 171.629 8.46C173.455 8.46 174.722 9.09333 175.429 10.36C176.135 11.6267 176.489 13.4067 176.489 15.7C176.489 18.0333 176.135 19.84 175.429 21.12C174.722 22.4 173.455 23.04 171.629 23.04C169.789 23.04 168.515 22.4 167.809 21.12C167.115 19.84 166.769 18.0333 166.769 15.7ZM175.109 15.7C175.109 14.46 175.022 13.4133 174.849 12.56C174.675 11.7067 174.335 11.02 173.829 10.5C173.322 9.98 172.589 9.72 171.629 9.72C170.669 9.72 169.935 9.98 169.429 10.5C168.922 11.02 168.582 11.7067 168.409 12.56C168.235 13.4133 168.149 14.46 168.149 15.7C168.149 16.98 168.235 18.0533 168.409 18.92C168.582 19.7733 168.922 20.46 169.429 20.98C169.935 21.5 170.669 21.76 171.629 21.76C172.589 21.76 173.322 21.5 173.829 20.98C174.335 20.46 174.675 19.7733 174.849 18.92C175.022 18.0533 175.109 16.98 175.109 15.7ZM179.093 15.7C179.093 13.4067 179.446 11.6267 180.153 10.36C180.86 9.09333 182.126 8.46 183.953 8.46C185.78 8.46 187.046 9.09333 187.753 10.36C188.46 11.6267 188.813 13.4067 188.813 15.7C188.813 18.0333 188.46 19.84 187.753 21.12C187.046 22.4 185.78 23.04 183.953 23.04C182.113 23.04 180.84 22.4 180.133 21.12C179.44 19.84 179.093 18.0333 179.093 15.7ZM187.433 15.7C187.433 14.46 187.346 13.4133 187.173 12.56C187 11.7067 186.66 11.02 186.153 10.5C185.646 9.98 184.913 9.72 183.953 9.72C182.993 9.72 182.26 9.98 181.753 10.5C181.246 11.02 180.906 11.7067 180.733 12.56C180.56 13.4133 180.473 14.46 180.473 15.7C180.473 16.98 180.56 18.0533 180.733 18.92C180.906 19.7733 181.246 20.46 181.753 20.98C182.26 21.5 182.993 21.76 183.953 21.76C184.913 21.76 185.646 21.5 186.153 20.98C186.66 20.46 187 19.7733 187.173 18.92C187.346 18.0533 187.433 16.98 187.433 15.7ZM191.417 15.7C191.417 13.4067 191.771 11.6267 192.477 10.36C193.184 9.09333 194.451 8.46 196.277 8.46C198.104 8.46 199.371 9.09333 200.077 10.36C200.784 11.6267 201.137 13.4067 201.137 15.7C201.137 18.0333 200.784 19.84 200.077 21.12C199.371 22.4 198.104 23.04 196.277 23.04C194.437 23.04 193.164 22.4 192.457 21.12C191.764 19.84 191.417 18.0333 191.417 15.7ZM199.757 15.7C199.757 14.46 199.671 13.4133 199.497 12.56C199.324 11.7067 198.984 11.02 198.477 10.5C197.971 9.98 197.237 9.72 196.277 9.72C195.317 9.72 194.584 9.98 194.077 10.5C193.571 11.02 193.231 11.7067 193.057 12.56C192.884 13.4133 192.797 14.46 192.797 15.7C192.797 16.98 192.884 18.0533 193.057 18.92C193.231 19.7733 193.571 20.46 194.077 20.98C194.584 21.5 195.317 21.76 196.277 21.76C197.237 21.76 197.971 21.5 198.477 20.98C198.984 20.46 199.324 19.7733 199.497 18.92C199.671 18.0533 199.757 16.98 199.757 15.7ZM203.741 15.7C203.741 13.4067 204.095 11.6267 204.801 10.36C205.508 9.09333 206.775 8.46 208.601 8.46C210.428 8.46 211.695 9.09333 212.401 10.36C213.108 11.6267 213.461 13.4067 213.461 15.7C213.461 18.0333 213.108 19.84 212.401 21.12C211.695 22.4 210.428 23.04 208.601 23.04C206.761 23.04 205.488 22.4 204.781 21.12C204.088 19.84 203.741 18.0333 203.741 15.7ZM212.081 15.7C212.081 14.46 211.995 13.4133 211.821 12.56C211.648 11.7067 211.308 11.02 210.801 10.5C210.295 9.98 209.561 9.72 208.601 9.72C207.641 9.72 206.908 9.98 206.401 10.5C205.895 11.02 205.555 11.7067 205.381 12.56C205.208 13.4133 205.121 14.46 205.121 15.7C205.121 16.98 205.208 18.0533 205.381 18.92C205.555 19.7733 205.895 20.46 206.401 20.98C206.908 21.5 207.641 21.76 208.601 21.76C209.561 21.76 210.295 21.5 210.801 20.98C211.308 20.46 211.648 19.7733 211.821 18.92C211.995 18.0533 212.081 16.98 212.081 15.7Z" fill="#333333"/>
<g clip-path="url(#clip0_1_987)">
<path d="M10.0757 12.3489C11.1038 11.3208 11.1038 9.64807 10.0757 8.61999L6.46006 5.00434C5.90699 4.45122 5.14029 4.17096 4.3573 4.23542C3.58926 4.29864 2.89457 4.69016 2.45143 5.3095C2.35943 5.43805 2.27061 5.56848 2.18359 5.69997L9.45408 12.9705L10.0757 12.3489Z" fill="black"/>
<path d="M24.9955 23.5394L21.3798 19.9237C20.3519 18.8958 18.679 18.8956 17.6509 19.9237L17.0293 20.5454L24.3001 27.8161C24.4316 27.7291 24.5618 27.6399 24.6903 27.548C25.3096 27.1049 25.7011 26.4102 25.7644 25.6421C25.8289 24.859 25.5486 24.0926 24.9955 23.5394Z" fill="black"/>
<path d="M14.5435 21.939C13.8391 21.939 13.1771 21.6648 12.679 21.1668L8.83292 17.3207C8.33494 16.8227 8.0606 16.1605 8.0606 15.4562C8.0606 15.0561 8.14937 14.6698 8.31707 14.3193L1.2857 7.28784C0.296635 9.36458 -0.14106 11.6913 0.0395256 14.0267C0.282865 17.1738 1.64001 20.1301 3.86107 22.3511L7.64869 26.1386C9.86962 28.3596 12.826 29.7168 15.973 29.9602C16.3169 29.9868 16.6605 30 17.0033 30C18.9882 30 20.9409 29.5575 22.7118 28.7141L15.6804 21.6826C15.3299 21.8503 14.9435 21.939 14.5435 21.939Z" fill="black"/>
<path d="M17.6951 0C17.2097 0 16.8162 0.393516 16.8162 0.878906C16.8162 1.3643 17.2097 1.75781 17.6951 1.75781C23.5106 1.75781 28.2419 6.48914 28.2419 12.3047C28.2419 12.7901 28.6355 13.1836 29.1208 13.1836C29.6062 13.1836 29.9998 12.7901 29.9998 12.3047C29.9998 5.51988 24.4799 0 17.6951 0Z" fill="black"/>
<path d="M17.695 12.3039C17.695 12.3039 17.6951 12.3042 17.6951 12.3047C17.6951 12.7901 18.0886 13.1836 18.574 13.1836C19.0594 13.1836 19.4529 12.7901 19.4529 12.3047C19.4529 11.3354 18.6643 10.5469 17.6951 10.5469C17.2097 10.5469 16.8162 10.94 16.8162 11.4254C16.8162 11.9108 17.2096 12.3039 17.695 12.3039Z" fill="black"/>
<path d="M17.6951 8.78906C19.6336 8.78906 21.2107 10.3662 21.2107 12.3047C21.2107 12.7901 21.6042 13.1836 22.0896 13.1836C22.575 13.1836 22.9685 12.7901 22.9685 12.3047C22.9685 9.39691 20.6028 7.03125 17.6951 7.03125C17.2097 7.03125 16.8162 7.42477 16.8162 7.91016C16.8162 8.39555 17.2097 8.78906 17.6951 8.78906Z" fill="black"/>
<path d="M17.6951 3.51562C17.2097 3.51562 16.8162 3.90914 16.8162 4.39453C16.8162 4.87992 17.2097 5.27344 17.6951 5.27344C21.5721 5.27344 24.7263 8.42766 24.7263 12.3047C24.7263 12.7901 25.1198 13.1836 25.6052 13.1836C26.0906 13.1836 26.4841 12.7901 26.4841 12.3047C26.4841 7.4584 22.5414 3.51562 17.6951 3.51562Z" fill="black"/>
</g>
<defs>
<clipPath id="clip0_1_987">
<rect width="30" height="30" fill="white"/>
</clipPath>
</defs>
</svg>
